<?xml version="1.0" encoding="UTF-8" standalone="no"?>
<!-- Created with Inkscape (http://www.inkscape.org/) -->

<svg
   viewBox="122 117 11 63"
   version="1.1"
   id="svg1"
   xmlns="http://www.w3.org/2000/svg"
   xmlns:svg="http://www.w3.org/2000/svg">
  <defs
     id="defs1" />
  <g
     id="layer1">
    <rect
       style="fill:#000000;fill-opacity:0;stroke:#000000;stroke-width:0.270495;stroke-linecap:round;stroke-linejoin:bevel"
       id="rect1"
       width="7.4151864"
       height="48.857815"
       x="123.90578"
       y="123.06001"
       ry="0" />
    <rect
       style="fill:#000000;fill-opacity:0;stroke:#000000;stroke-width:0.168948;stroke-linecap:round;stroke-linejoin:bevel;stroke-dasharray:none"
       id="rect2"
       width="7.5795407"
       height="5.0007157"
       x="123.84801"
       y="118.08664"
       ry="0" />
    <rect
       style="fill:#000000;fill-opacity:0;stroke:#000000;stroke-width:0.0909069;stroke-linecap:round;stroke-linejoin:bevel;stroke-dasharray:none"
       id="rect3"
       width="7.6429281"
       height="1.4358307"
       x="123.81632"
       y="121.69956"
       ry="0" />
    <rect
       style="fill:#000000;fill-opacity:1;stroke:#000000;stroke-width:0.0872183;stroke-linecap:round;stroke-linejoin:bevel;stroke-dasharray:none"
       id="rect4"
       width="0.44607699"
       height="48.784973"
       x="126.0241"
       y="123.09644" />
    <rect
       style="fill:#000000;fill-opacity:1;stroke:#000000;stroke-width:0.0872183;stroke-linecap:round;stroke-linejoin:bevel;stroke-dasharray:none"
       id="rect5"
       width="0.44607699"
       height="48.784973"
       x="129.08189"
       y="123.03139" />
    <path
       id="path6"
       style="fill:#000000;fill-opacity:0;stroke:#000000;stroke-width:0.468794;stroke-linecap:round;stroke-linejoin:bevel;stroke-dasharray:none"
       d="m 124.77267,171.97126 c -0.0594,0.006 -0.11877,0.0131 -0.17811,0.0211 -0.21002,0.0315 -0.41945,0.0704 -0.62861,0.11062 l 3.29867,6.46981 4.21438,-6.57418 c -0.49359,-0.0471 -0.98738,-0.0635 -1.48074,-0.0824 -0.13594,-0.001 -0.27179,-0.005 -0.40772,-0.01 -0.20968,0.002 -0.41942,0.005 -0.62908,0.009 -0.63296,0.0114 -1.26557,0.0331 -1.89806,0.0569 -0.61057,0.006 -1.22173,-0.003 -1.83229,0.002 -0.15254,5.8e-4 -0.30548,3.8e-4 -0.45843,-0.003 z" />
  </g>
</svg>
